<?xml version="1.0" encoding="utf-8"?>
<!-- Generator: Adobe Illustrator 22.0.1, SVG Export Plug-In . SVG Version: 6.00 Build 0)  -->
<svg version="1.1" id="Layer_1" xmlns="http://www.w3.org/2000/svg" xmlns:xlink="http://www.w3.org/1999/xlink" x="0px" y="0px"
	 viewBox="0 0 83 81" style="enable-background:new 0 0 83 81;" xml:space="preserve">
<style type="text/css">
	.st0{fill:#F26522;}
</style>
<g>
	<path class="st0" d="M68.2,59.8c3.9-5.7,5.9-12.3,5.9-19.1C74.1,22,58.9,6.9,40.2,6.9C21.6,6.9,6.4,22,6.4,40.7
		c0,18.7,15.2,33.8,33.8,33.8c6.9,0,13.5-2.1,19.1-5.9c0.4-0.3,0.9-0.3,1.4-0.2l11.3,4.1L68,61.2C67.8,60.8,67.9,60.2,68.2,59.8z
		 M40.1,67.9c-3.7,0-6.7-3-6.7-6.7s3-6.7,6.7-6.7s6.7,3,6.7,6.7S43.8,67.9,40.1,67.9z M48.3,42.4c-0.9,0.7-1.8,1.3-2.2,1.9
		c-0.1,0.2-0.2,0.9-0.3,2.9c0,1.5-1.2,2.6-2.7,2.6h-5.9c-1.5,0-2.7-1.2-2.7-2.7v-5c0-4.2,3.5-6.1,5.7-7.3c3.2-1.7,3.5-2.3,3.5-3.3
		c0-2-1.6-3.6-3.5-3.6c-1.8,0-3.3,1-4.6,3.1c-0.6,1-1.9,1.3-2.8,0.7l-6.2-3.5c-0.5-0.3-0.9-0.8-1-1.3c-0.1-0.6-0.1-1.1,0.2-1.6
		c3.4-5.6,8.5-8.7,14.3-8.7c8.2,0,14.9,6.7,14.9,15C55,37.4,51,40.4,48.3,42.4z"/>
</g>
</svg>
