<svg xmlns="http://www.w3.org/2000/svg" viewBox="0 0 99.53 99.88"><defs><style>.cls-1{fill:#ea9423;}.cls-1,.cls-2,.cls-3,.cls-4,.cls-5{fill-rule:evenodd;}.cls-2{fill:#fff;}.cls-3{fill:#363f4f;}.cls-4{fill:#020202;}.cls-5{fill:#4e4234;}</style></defs><title>Asset 4</title><g id="Layer_2" data-name="Layer 2"><g id="Layer_1-2" data-name="Layer 1"><path class="cls-1" d="M.42,43.59q0-.16.05-.33A47.57,47.57,0,0,1,14.67,14.54,47.92,47.92,0,0,1,49.82,0a47.74,47.74,0,0,1,34,13.41L85,14.54,94.76,28A42.18,42.18,0,0,1,97,33.13a36.13,36.13,0,0,1,2.33,11.21c0,.12,0,.24,0,.36q.22,2.43.22,5t-.21,4.71q0,.73,0,1.49Q99.12,63,94.72,72A46.46,46.46,0,0,1,81,89.16a52.24,52.24,0,0,1-19.81,9.7,61.06,61.06,0,0,1-20.63.27,49.33,49.33,0,0,1-20.18-8.88A49.2,49.2,0,0,1,5.85,73.63,56,56,0,0,1,.87,59,48.11,48.11,0,0,1,.42,43.59ZM34.48,22.39q-.41-.14-3.36-.79a23.22,23.22,0,0,0-11.23,1.47,14,14,0,0,0-2.61,1.34,3.09,3.09,0,0,0-1.41,2.5,4.87,4.87,0,0,0,1.34,2.74,2.32,2.32,0,0,0,2.71.72l5-1.75a10.87,10.87,0,0,1,5.25-.38,25.27,25.27,0,0,1,2.92.62A3.63,3.63,0,0,0,36,28.39a2.82,2.82,0,0,0,1.34-1.82,4,4,0,0,0,0-2.26A5.07,5.07,0,0,0,34.48,22.39Zm5.22,16.22a13.28,13.28,0,0,0-9.75-4,13.71,13.71,0,0,0-13.8,13.79,13.26,13.26,0,0,0,4,9.74,13.34,13.34,0,0,0,9.78,4,13.22,13.22,0,0,0,9.75-4,13.78,13.78,0,0,0,0-19.51Zm23-11.21q1.2,2.61,3.47,1.82,1.17-.21,3.47-.82a10.72,10.72,0,0,1,3.54-.21,20.64,20.64,0,0,1,4,.86,25,25,0,0,0,3.95,1,3,3,0,0,0,2.27-1.71,3.27,3.27,0,0,0,0-2.95,4.49,4.49,0,0,0-2.85-2.54q-2.68-.62-3.88-1A17.52,17.52,0,0,0,70,21.47a21,21,0,0,0-6.39,2Q61.49,24.69,62.69,27.4Zm17,11.21A13.78,13.78,0,0,0,56.1,48.39,13.76,13.76,0,0,0,69.9,62.17,13.82,13.82,0,0,0,83.7,48.39,13.31,13.31,0,0,0,79.65,38.61Zm-4.12,33.5a2.85,2.85,0,0,0-2.09-.86H25.79a2.93,2.93,0,0,0-3,2.95v2.95H76.39V74.21A2.85,2.85,0,0,0,75.53,72.12Z"/><path class="cls-2" d="M29.7,43.55a2.5,2.5,0,0,1,.55,1.61,2.67,2.67,0,0,1-.82,2,2.76,2.76,0,0,1-3.54.27l-.34-.27a2.73,2.73,0,0,1-.79-2,2.61,2.61,0,0,1,.79-1.92,2.67,2.67,0,0,1,2-.82,2.56,2.56,0,0,1,1.92.82A3.72,3.72,0,0,1,29.7,43.55Zm6-1.13a7.48,7.48,0,0,0-5.49-2.26,7.73,7.73,0,0,0-7.79,7.78,7.79,7.79,0,0,0,7.79,7.78A7.85,7.85,0,0,0,38,47.94,7.53,7.53,0,0,0,35.71,42.42Zm4-3.81a13.78,13.78,0,0,1,0,19.51,13.22,13.22,0,0,1-9.75,4,13.34,13.34,0,0,1-9.78-4,13.86,13.86,0,0,1,0-19.51,13.4,13.4,0,0,1,9.78-4A13.28,13.28,0,0,1,39.69,38.61ZM69.25,44a2.5,2.5,0,0,1,.55,1.61,2.67,2.67,0,0,1-.82,2,2.76,2.76,0,0,1-3.54.27l-.34-.27a2.73,2.73,0,0,1-.79-2,2.61,2.61,0,0,1,.79-1.92,2.67,2.67,0,0,1,2-.82,2.56,2.56,0,0,1,1.92.82A3.72,3.72,0,0,1,69.25,44Zm6-1.13a7.48,7.48,0,0,0-5.49-2.26A7.73,7.73,0,0,0,62,48.35a7.77,7.77,0,0,0,13.29,5.49,7.41,7.41,0,0,0,2.3-5.49A7.53,7.53,0,0,0,75.26,42.83Zm4.39-4.22a13.77,13.77,0,0,1,0,19.51,13.81,13.81,0,0,1-19.53,0,13.86,13.86,0,0,1,0-19.51,13.89,13.89,0,0,1,19.53,0Z"/><path class="cls-3" d="M25.89,47.39a3.38,3.38,0,0,0,0,.48,4.39,4.39,0,0,0,4.36,4.39A4.15,4.15,0,0,0,33.31,51a4.2,4.2,0,0,0,1.27-3.09,4.27,4.27,0,0,0-1.27-3.09,4.21,4.21,0,0,0-3.09-1.27,3.65,3.65,0,0,0-.52,0,3.72,3.72,0,0,0-.27-.31,2.56,2.56,0,0,0-1.92-.82,2.67,2.67,0,0,0-2,.82,2.61,2.61,0,0,0-.79,1.92,2.73,2.73,0,0,0,.79,2Zm9.82-5A7.53,7.53,0,0,1,38,47.94a7.85,7.85,0,0,1-7.79,7.78,7.78,7.78,0,1,1,0-15.57A7.48,7.48,0,0,1,35.71,42.42ZM65.44,47.8a3.38,3.38,0,0,0,0,.48,4.39,4.39,0,0,0,4.36,4.39,4.15,4.15,0,0,0,3.09-1.3,4.2,4.2,0,0,0,1.27-3.09,4.27,4.27,0,0,0-1.27-3.09,4.21,4.21,0,0,0-3.09-1.27,3.73,3.73,0,0,0-.52,0,3.72,3.72,0,0,0-.27-.31,2.56,2.56,0,0,0-1.92-.82,2.67,2.67,0,0,0-2,.82,2.61,2.61,0,0,0-.79,1.92,2.73,2.73,0,0,0,.79,2Zm9.82-5a7.53,7.53,0,0,1,2.3,5.52,7.85,7.85,0,0,1-7.79,7.78,7.78,7.78,0,1,1,0-15.57A7.48,7.48,0,0,1,75.26,42.83Z"/><path class="cls-4" d="M25.89,47.39a2.76,2.76,0,0,0,3.54-.27,2.67,2.67,0,0,0,.82-2,2.5,2.5,0,0,0-.55-1.61,3.65,3.65,0,0,1,.52,0,4.21,4.21,0,0,1,3.09,1.27,4.27,4.27,0,0,1,1.27,3.09A4.2,4.2,0,0,1,33.31,51a4.15,4.15,0,0,1-3.09,1.3,4.39,4.39,0,0,1-4.36-4.39A3.38,3.38,0,0,1,25.89,47.39Zm39.55.41A2.76,2.76,0,0,0,69,47.53a2.67,2.67,0,0,0,.82-2A2.5,2.5,0,0,0,69.25,44a3.73,3.73,0,0,1,.52,0,4.21,4.21,0,0,1,3.09,1.27,4.27,4.27,0,0,1,1.27,3.09,4.2,4.2,0,0,1-1.27,3.09,4.15,4.15,0,0,1-3.09,1.3,4.39,4.39,0,0,1-4.36-4.39A3.38,3.38,0,0,1,65.44,47.8Z"/><path class="cls-5" d="M34.48,22.39a5.07,5.07,0,0,1,2.78,1.92,4,4,0,0,1,0,2.26A2.82,2.82,0,0,1,36,28.39a3.63,3.63,0,0,1-2.85.48,25.27,25.27,0,0,0-2.92-.62,10.87,10.87,0,0,0-5.25.38l-5,1.75a2.32,2.32,0,0,1-2.71-.72,4.87,4.87,0,0,1-1.34-2.74,3.09,3.09,0,0,1,1.41-2.5,14,14,0,0,1,2.61-1.34A23.22,23.22,0,0,1,31.11,21.6Q34.06,22.26,34.48,22.39Zm28.22,5q-1.2-2.71.89-3.91a21,21,0,0,1,6.39-2,17.52,17.52,0,0,1,6.66.38q1.2.34,3.88,1a4.49,4.49,0,0,1,2.85,2.54,3.27,3.27,0,0,1,0,2.95A3,3,0,0,1,81.13,30a25,25,0,0,1-3.95-1,20.64,20.64,0,0,0-4-.86,10.72,10.72,0,0,0-3.54.21q-2.3.62-3.47.82Q63.9,30,62.69,27.4ZM75.53,72.12a2.85,2.85,0,0,1,.86,2.09v2.95H22.84V74.21a2.93,2.93,0,0,1,3-2.95H73.44A2.85,2.85,0,0,1,75.53,72.12Z"/></g></g></svg>