<svg xmlns="http://www.w3.org/2000/svg" viewBox="0 0 99.41 99.31"><defs><style>.cls-1{fill:#009d4b;}.cls-1,.cls-2,.cls-3,.cls-4,.cls-5,.cls-6,.cls-7,.cls-8{fill-rule:evenodd;}.cls-2{fill:#d0e7e9;}.cls-3{fill:#4e4234;}.cls-4{fill:#fff;}.cls-5{fill:#f6548c;}.cls-6{fill:#d7326b;}.cls-7{fill:#363f4f;}.cls-8{fill:#020202;}</style></defs><title>Asset 3</title><g id="Layer_2" data-name="Layer 2"><g id="Layer_1-2" data-name="Layer 1"><path class="cls-1" d="M15.76,19.24A4.87,4.87,0,0,0,17.1,22a2.32,2.32,0,0,0,2.71.72l5-1.75a10.87,10.87,0,0,1,5.25-.38,25.2,25.2,0,0,1,2.92.62,3.63,3.63,0,0,0,2.85-.48,2.82,2.82,0,0,0,1.34-1.82,4,4,0,0,0,0-2.26,5.07,5.07,0,0,0-2.78-1.92Q34,14.57,31,13.92A23.21,23.21,0,0,0,19.77,15.4a14,14,0,0,0-2.61,1.34A3.09,3.09,0,0,0,15.76,19.24ZM80.4,15.12q-2.68-.62-3.88-1a17.49,17.49,0,0,0-6.66-.38,21,21,0,0,0-6.39,2q-2.09,1.2-.89,3.91T66,21.54q1.17-.21,3.47-.82A10.7,10.7,0,0,1,73,20.51a20.63,20.63,0,0,1,4,.86,25,25,0,0,0,3.95,1,3,3,0,0,0,2.27-1.71,3.27,3.27,0,0,0,0-2.95A4.49,4.49,0,0,0,80.4,15.12ZM49.71,0A47.92,47.92,0,0,1,84.86,14.54,47.82,47.82,0,0,1,99.41,49.65,47.82,47.82,0,0,1,84.86,84.77,47.92,47.92,0,0,1,49.71,99.31,47.92,47.92,0,0,1,14.55,84.77,47.82,47.82,0,0,1,0,49.65,47.82,47.82,0,0,1,14.55,14.54,47.92,47.92,0,0,1,49.71,0ZM56,45.09a13.76,13.76,0,0,0,13.8,13.79,13.82,13.82,0,0,0,13.8-13.79,13.76,13.76,0,0,0-13.8-13.79A13.71,13.71,0,0,0,56,45.09ZM39.58,35.32a13.28,13.28,0,0,0-9.75-4A13.71,13.71,0,0,0,16,45.09a13.26,13.26,0,0,0,4,9.74,13.34,13.34,0,0,0,9.78,4,13.22,13.22,0,0,0,9.75-4,13.78,13.78,0,0,0,0-19.51ZM63.64,86.59a31,31,0,0,0,10-8.37,29.74,29.74,0,0,0,5.8-11.66q.34-2.64.52-4.53.1-1.23.14-2.13-3.23.21-8.75.79-6.35.69-8.79.89-6.18.75-20.67,2.19-13.35,1.37-20.73,2.33.21.93.45,1.75,1,3.84,2,4.6a23.44,23.44,0,0,0,7.65,10.29,32.28,32.28,0,0,0,11.5,6l4.33.51a48.43,48.43,0,0,0,6,.1,33.79,33.79,0,0,0,5.35-1.1Q60.21,87.75,63.64,86.59Z"/><path class="cls-2" d="M23.62,72.46q-1-.75-2-4.6-.24-.82-.45-1.75,7.38-1,20.73-2.33,14.49-1.44,20.67-2.19,2.44-.21,8.79-.89,5.53-.58,8.75-.79,0,.89-.14,2.13-.17,1.89-.52,4.53-1.68-3.91-5-4L27.12,67.32A5.32,5.32,0,0,0,23.62,72.46Z"/><path class="cls-3" d="M80.4,15.12a4.49,4.49,0,0,1,2.85,2.54,3.27,3.27,0,0,1,0,2.95A3,3,0,0,1,81,22.32a25,25,0,0,1-3.95-1,20.63,20.63,0,0,0-4-.86,10.7,10.7,0,0,0-3.54.21q-2.3.62-3.47.82-2.27.79-3.47-1.82t.89-3.91a21,21,0,0,1,6.39-2,17.49,17.49,0,0,1,6.66.38Q77.72,14.5,80.4,15.12ZM15.76,19.24a3.09,3.09,0,0,1,1.41-2.5,14,14,0,0,1,2.61-1.34A23.21,23.21,0,0,1,31,13.92q3,.65,3.36.79a5.07,5.07,0,0,1,2.78,1.92,4,4,0,0,1,0,2.26,2.82,2.82,0,0,1-1.34,1.82,3.63,3.63,0,0,1-2.85.48,25.2,25.2,0,0,0-2.92-.62,10.87,10.87,0,0,0-5.25.38l-5,1.75A2.32,2.32,0,0,1,17.1,22,4.87,4.87,0,0,1,15.76,19.24Zm7.86,53.22Q67,68,79.47,66.56a29.74,29.74,0,0,1-5.8,11.66,31,31,0,0,1-10,8.37A13.35,13.35,0,0,0,61,82.06a8,8,0,0,0-4.43-2.67,16,16,0,0,0-1.75-.24,7.51,7.51,0,0,0-1-.07q-.79,0-1.51.07a1.93,1.93,0,0,0-.38,0,.76.76,0,0,0-.24,0,4.42,4.42,0,0,0-.58.1q-.38.07-.75.17a9.15,9.15,0,0,0-5.22,3.22,9,9,0,0,0-1.51,2.91q-.17.51-.86,3.12a32.28,32.28,0,0,1-11.5-6A23.44,23.44,0,0,1,23.62,72.46Z"/><path class="cls-4" d="M69.14,40.67a2.5,2.5,0,0,1,.55,1.61,2.67,2.67,0,0,1-.82,2,2.76,2.76,0,0,1-3.54.27L65,44.24a2.73,2.73,0,0,1-.79-2A2.61,2.61,0,0,1,65,40.36a2.67,2.67,0,0,1,2-.82,2.56,2.56,0,0,1,1.92.82A3.63,3.63,0,0,1,69.14,40.67ZM56,45.09a13.81,13.81,0,0,1,23.55-9.77,13.77,13.77,0,0,1,0,19.51,13.81,13.81,0,0,1-19.53,0A13.25,13.25,0,0,1,56,45.09Zm5.87,0a7.77,7.77,0,0,0,13.29,5.49,7.41,7.41,0,0,0,2.3-5.49,7.79,7.79,0,1,0-15.59,0ZM39.58,35.32a13.78,13.78,0,0,1,0,19.51,13.22,13.22,0,0,1-9.75,4,13.34,13.34,0,0,1-9.78-4,13.86,13.86,0,0,1,0-19.51,13.4,13.4,0,0,1,9.78-4A13.28,13.28,0,0,1,39.58,35.32Zm-4,3.81a7.48,7.48,0,0,0-5.49-2.26,7.73,7.73,0,0,0-7.79,7.78,7.79,7.79,0,0,0,7.79,7.78,7.85,7.85,0,0,0,7.79-7.78A7.52,7.52,0,0,0,35.6,39.13Zm-6,1.13a2.5,2.5,0,0,1,.55,1.61,2.67,2.67,0,0,1-.82,2,2.76,2.76,0,0,1-3.54.27l-.34-.27a2.73,2.73,0,0,1-.79-2,2.61,2.61,0,0,1,.79-1.92,2.67,2.67,0,0,1,2-.82,2.56,2.56,0,0,1,1.92.82A3.82,3.82,0,0,1,29.59,40.26Zm49.88,26.3Q67,68,23.62,72.46a5.32,5.32,0,0,1,3.5-5.14l47.37-4.73Q77.79,62.65,79.47,66.56Z"/><path class="cls-5" d="M54.82,79.15a1.79,1.79,0,0,1,.38,1.2q0,1.89-3.12,3.33-3.47,1.61-4.26,3.94-.07.93-.1,1.68a5.72,5.72,0,0,0-.62,0l-4.33-.51q.69-2.61.86-3.12a9,9,0,0,1,1.51-2.91,9.15,9.15,0,0,1,5.22-3.22q.38-.1.75-.17a4.42,4.42,0,0,1,.58-.1.76.76,0,0,1,.24,0,1.93,1.93,0,0,1,.38,0q.72-.07,1.51-.07A7.51,7.51,0,0,1,54.82,79.15Z"/><path class="cls-6" d="M54.82,79.15a16,16,0,0,1,1.75.24A8,8,0,0,1,61,82.06a13.35,13.35,0,0,1,2.64,4.53q-3.43,1.17-5.18,1.68a33.79,33.79,0,0,1-5.35,1.1,48.43,48.43,0,0,1-6-.1,5.72,5.72,0,0,1,.62,0q0-.75.1-1.68.79-2.33,4.26-3.94,3.12-1.44,3.12-3.33A1.79,1.79,0,0,0,54.82,79.15Z"/><path class="cls-7" d="M65.33,44.51a3.38,3.38,0,0,0,0,.48,4.39,4.39,0,0,0,4.36,4.39,4.15,4.15,0,0,0,3.09-1.3A4.2,4.2,0,0,0,74,45a4.27,4.27,0,0,0-1.27-3.09,4.21,4.21,0,0,0-3.09-1.27,3.64,3.64,0,0,0-.52,0,3.63,3.63,0,0,0-.27-.31,2.56,2.56,0,0,0-1.92-.82,2.67,2.67,0,0,0-2,.82,2.61,2.61,0,0,0-.79,1.92,2.73,2.73,0,0,0,.79,2Zm-3.47.55a7.73,7.73,0,0,1,7.79-7.78,7.76,7.76,0,0,1,5.49,13.27,7.43,7.43,0,0,1-5.49,2.3,7.79,7.79,0,0,1-7.79-7.78ZM35.6,39.13a7.52,7.52,0,0,1,2.3,5.52,7.85,7.85,0,0,1-7.79,7.78,7.78,7.78,0,1,1,0-15.57A7.48,7.48,0,0,1,35.6,39.13Zm-9.82,5a3.39,3.39,0,0,0,0,.48A4.39,4.39,0,0,0,30.11,49a4.15,4.15,0,0,0,3.09-1.3,4.2,4.2,0,0,0,1.27-3.09,4.27,4.27,0,0,0-1.27-3.09,4.21,4.21,0,0,0-3.09-1.27,3.65,3.65,0,0,0-.52,0,3.82,3.82,0,0,0-.27-.31,2.56,2.56,0,0,0-1.92-.82,2.67,2.67,0,0,0-2,.82,2.61,2.61,0,0,0-.79,1.92,2.73,2.73,0,0,0,.79,2Z"/><path class="cls-8" d="M65.33,44.51a2.76,2.76,0,0,0,3.54-.27,2.67,2.67,0,0,0,.82-2,2.5,2.5,0,0,0-.55-1.61,3.64,3.64,0,0,1,.52,0,4.21,4.21,0,0,1,3.09,1.27A4.27,4.27,0,0,1,74,45a4.2,4.2,0,0,1-1.27,3.09,4.15,4.15,0,0,1-3.09,1.3A4.39,4.39,0,0,1,65.29,45,3.38,3.38,0,0,1,65.33,44.51ZM25.78,44.1a2.76,2.76,0,0,0,3.54-.27,2.67,2.67,0,0,0,.82-2,2.5,2.5,0,0,0-.55-1.61,3.65,3.65,0,0,1,.52,0,4.21,4.21,0,0,1,3.09,1.27,4.27,4.27,0,0,1,1.27,3.09,4.2,4.2,0,0,1-1.27,3.09A4.15,4.15,0,0,1,30.11,49a4.39,4.39,0,0,1-4.36-4.39A3.39,3.39,0,0,1,25.78,44.1Z"/></g></g></svg>