<?xml version="1.0" encoding="utf-8"?>
<!-- Generator: Adobe Illustrator 22.0.1, SVG Export Plug-In . SVG Version: 6.00 Build 0)  -->
<svg version="1.1" id="Layer_1" xmlns="http://www.w3.org/2000/svg" xmlns:xlink="http://www.w3.org/1999/xlink" x="0px" y="0px"
	 viewBox="0 0 226 196" style="enable-background:new 0 0 226 196;" xml:space="preserve">
<style type="text/css">
	.st0{fill:#6BADA7;}
	.st1{fill:#666666;}
	.st2{fill:#FFFFFF;}
</style>
<g>
	<g>
		<path class="st0" d="M214,168.9c0,1.8-0.7,3.5-2,4.9c-1.3,1.3-3.1,2-4.8,2H26.7c-1.8,0-3.5-0.7-4.9-2c-1.3-1.3-2-3.1-2-4.9V55.3
			H214V168.9z"/>
		<path class="st1" d="M214,55.3H19.8V27.2c0-1.8,0.7-3.5,2-4.8c1.3-1.3,3.1-2,4.9-2h180.5c1.8,0,3.5,0.7,4.8,2c1.3,1.3,2,3.1,2,4.8
			V55.3z"/>
	</g>
	<g>
		<polygon class="st2" points="91.4,140 66.9,115.5 91.4,91 97.8,97.5 79.8,115.5 97.8,133.6 		"/>
		<polygon class="st2" points="142.4,140 136,133.6 154,115.5 136,97.5 142.4,91 166.9,115.5 		"/>
		
			<rect x="81.3" y="111" transform="matrix(0.2727 -0.9621 0.9621 0.2727 -26.1475 196.5084)" class="st2" width="71.2" height="9.1"/>
	</g>
	<g>
		<path class="st0" d="M42.7,37.9c0,3.2-2.6,5.7-5.7,5.7c-3.2,0-5.7-2.6-5.7-5.7c0-3.2,2.6-5.7,5.7-5.7
			C40.1,32.2,42.7,34.7,42.7,37.9z"/>
		<path class="st0" d="M59.8,37.9c0,3.2-2.6,5.7-5.7,5.7c-3.2,0-5.7-2.6-5.7-5.7c0-3.2,2.6-5.7,5.7-5.7
			C57.2,32.2,59.8,34.7,59.8,37.9z"/>
		<path class="st0" d="M76.9,37.9c0,3.2-2.6,5.7-5.7,5.7c-3.2,0-5.7-2.6-5.7-5.7c0-3.2,2.6-5.7,5.7-5.7
			C74.4,32.2,76.9,34.7,76.9,37.9z"/>
	</g>
</g>
</svg>
