<svg xmlns="http://www.w3.org/2000/svg" viewBox="0 0 99.49 99.91"><defs><style>.cls-1{fill:#ce242b;}.cls-1,.cls-2,.cls-3,.cls-4,.cls-5{fill-rule:evenodd;}.cls-2{fill:#fff;}.cls-3{fill:#363f4f;}.cls-4{fill:#020202;}.cls-5{fill:#4e4234;}</style></defs><title>Asset 5</title><g id="Layer_2" data-name="Layer 2"><g id="Layer_1-2" data-name="Layer 1"><path class="cls-1" d="M49.21,0Q51,0,53.1.12,54.46.18,56,.28a35.84,35.84,0,0,1,7.66,1.65q2.51.79,7.35,2.71A52.73,52.73,0,0,1,88.32,18a46.16,46.16,0,0,1,3.74,5.21,54.47,54.47,0,0,1,3.19,5.62q1.2,3,2,5.56L97.8,36q.45,1.48.86,3,.1.66.19,1.32a33.73,33.73,0,0,1,.64,6.84v1.63q0,1,0,1.94v3.74a38.85,38.85,0,0,1-.41,4.29,20.49,20.49,0,0,1-.65,2.92q-.24.85-.48,1.63-.14.53-.31,1.06l-.31,1q-1,3.27-1.82,5.23A26.18,26.18,0,0,1,91,78.05l-.34.51.24.24a54.34,54.34,0,0,1-12,12q-1.17.86-2.37,1.61a47.74,47.74,0,0,1-12.91,5.73q-3.47.82-5.18,1.2a21.53,21.53,0,0,1-5.32.55q-4.26.07-6.38,0A23.31,23.31,0,0,1,40.33,99q-1-.25-2-.51l-.43-.07q-1.73-.45-3.38-1l-4.81-1.8a40.49,40.49,0,0,1-4.07-2A47.92,47.92,0,0,1,20,90.06Q18.63,89,17.28,87.79l-2.64-2.47q-1.17-1.18-2.25-2.43l-.63-.74q-.58-.7-1.13-1.42l-1-1.35a39.33,39.33,0,0,1-5-8.49q-.92-2-1.65-4.08Q2.26,65,1.78,63.27A39.73,39.73,0,0,1,.2,54.87,72.47,72.47,0,0,1,.38,42.18,48.44,48.44,0,0,1,12.77,16.43,47.25,47.25,0,0,1,37.18,1.58,36.05,36.05,0,0,1,46.48,0Q47.71,0,49.21,0ZM20,39.2a3.38,3.38,0,0,0-1,2.44A3.27,3.27,0,0,0,20,44a3.33,3.33,0,0,0,2.44,1H38.58A3.52,3.52,0,0,0,42,41.63a3.33,3.33,0,0,0-1-2.44,3.27,3.27,0,0,0-2.4-1H22.45A3.39,3.39,0,0,0,20,39.2Zm42-1a3.4,3.4,0,0,0-3.43,3.43,3.27,3.27,0,0,0,1,2.4,3.33,3.33,0,0,0,2.44,1H78.13a3.52,3.52,0,0,0,3.43-3.43,3.33,3.33,0,0,0-1-2.44,3.28,3.28,0,0,0-2.4-1ZM77.15,56.55H56.43v.1a13.76,13.76,0,0,0,13.8,13.79A13.83,13.83,0,0,0,84,56.65v-.1ZM57.6,91.36a2.7,2.7,0,0,0,2.3.75,2.86,2.86,0,0,0,2.88-1.82,3.25,3.25,0,0,0-.14-3.46,17.29,17.29,0,0,0-6.87-5.55,14.19,14.19,0,0,0-8.65-1.13,18.15,18.15,0,0,0-6.59,3,11.34,11.34,0,0,0-4.22,5.69,20.28,20.28,0,0,0,.86,2A2,2,0,0,0,38.86,92q2,.45,4.22-1.75,2.58-2.61,3.88-2.88a12.39,12.39,0,0,1,4.81-.21,6.22,6.22,0,0,1,4.08,2.26Q56.43,90.06,57.6,91.36ZM37.79,56.55H18.12a7.75,7.75,0,0,1-1.65-.17v.27a13.26,13.26,0,0,0,4,9.74,13.34,13.34,0,0,0,9.78,4,13.22,13.22,0,0,0,9.75-4,13.2,13.2,0,0,0,4.05-9.74v-.1Z"/><path class="cls-2" d="M63,56.55a7.64,7.64,0,0,0-.74,3.36A7.77,7.77,0,0,0,75.59,65.4a7.41,7.41,0,0,0,2.3-5.49,7.64,7.64,0,0,0-.74-3.36H84v.1a13.83,13.83,0,0,1-13.8,13.79,13.76,13.76,0,0,1-13.8-13.79v-.1Zm2.73,2.81-.34-.28a2.73,2.73,0,0,1-.79-2,3.21,3.21,0,0,1,.05-.58h5.39a3.21,3.21,0,0,1,.05.58,2.67,2.67,0,0,1-.82,2,2.76,2.76,0,0,1-3.54.28ZM23.31,56.55a7.81,7.81,0,0,0-.55,2.95,7.79,7.79,0,0,0,7.79,7.78,7.85,7.85,0,0,0,7.79-7.78,7.81,7.81,0,0,0-.55-2.95h6.28v.1A13.2,13.2,0,0,1,40,66.39a13.22,13.22,0,0,1-9.75,4,13.34,13.34,0,0,1-9.78-4,13.26,13.26,0,0,1-4-9.74v-.27a7.75,7.75,0,0,0,1.65.17ZM26.22,59l-.34-.27a2.73,2.73,0,0,1-.79-2v-.17h5.49v.17a2.67,2.67,0,0,1-.82,2,2.76,2.76,0,0,1-3.54.27Z"/><path class="cls-3" d="M77.15,56.55a7.64,7.64,0,0,1,.74,3.36,7.85,7.85,0,0,1-7.79,7.78,7.79,7.79,0,0,1-7.79-7.78A7.64,7.64,0,0,1,63,56.55h1.65a3.21,3.21,0,0,0-.05.58,2.73,2.73,0,0,0,.79,2l.34.28a3.3,3.3,0,0,0,0,.48,4.39,4.39,0,0,0,4.36,4.39,4.15,4.15,0,0,0,3.09-1.3,4.2,4.2,0,0,0,1.27-3.09,4.27,4.27,0,0,0-1.27-3.09L73,56.55Zm-39.36,0a7.81,7.81,0,0,1,.55,2.95,7.85,7.85,0,0,1-7.79,7.78,7.79,7.79,0,0,1-7.79-7.78,7.81,7.81,0,0,1,.55-2.95h1.79v.17a2.73,2.73,0,0,0,.79,2l.34.27a3.46,3.46,0,0,0,0,.48,4.39,4.39,0,0,0,4.36,4.39,4.15,4.15,0,0,0,3.09-1.3,4.38,4.38,0,0,0,.19-6Z"/><path class="cls-4" d="M73,56.55l.22.21a4.27,4.27,0,0,1,1.27,3.09,4.2,4.2,0,0,1-1.27,3.09,4.15,4.15,0,0,1-3.09,1.3,4.39,4.39,0,0,1-4.36-4.39,3.3,3.3,0,0,1,0-.48,2.76,2.76,0,0,0,3.54-.28,2.67,2.67,0,0,0,.82-2,3.21,3.21,0,0,0-.05-.58Zm-39.13,0a4.38,4.38,0,0,1-.19,6,4.15,4.15,0,0,1-3.09,1.3,4.39,4.39,0,0,1-4.36-4.39,3.46,3.46,0,0,1,0-.48,2.76,2.76,0,0,0,3.54-.27,2.67,2.67,0,0,0,.82-2v-.17Z"/><path class="cls-5" d="M62,38.2H78.13a3.28,3.28,0,0,1,2.4,1,3.33,3.33,0,0,1,1,2.44,3.52,3.52,0,0,1-3.43,3.43H62a3.33,3.33,0,0,1-2.44-1,3.27,3.27,0,0,1-1-2.4A3.4,3.4,0,0,1,62,38.2Zm-42,1a3.39,3.39,0,0,1,2.44-1H38.58a3.27,3.27,0,0,1,2.4,1,3.33,3.33,0,0,1,1,2.44,3.52,3.52,0,0,1-3.43,3.43H22.45A3.33,3.33,0,0,1,20,44a3.27,3.27,0,0,1-1-2.4A3.38,3.38,0,0,1,20,39.2ZM57.6,91.36q-1.17-1.3-1.75-1.89a6.22,6.22,0,0,0-4.08-2.26,12.39,12.39,0,0,0-4.81.21q-1.31.27-3.88,2.88-2.2,2.19-4.22,1.75a2,2,0,0,1-1.68-1.17,20.28,20.28,0,0,1-.86-2,11.34,11.34,0,0,1,4.22-5.69,18.15,18.15,0,0,1,6.59-3,14.19,14.19,0,0,1,8.65,1.13,17.29,17.29,0,0,1,6.87,5.55,3.25,3.25,0,0,1,.14,3.46,2.86,2.86,0,0,1-2.88,1.82A2.7,2.7,0,0,1,57.6,91.36Z"/></g></g></svg>