<?xml version="1.0" encoding="utf-8"?>
<!-- Generator: Adobe Illustrator 21.1.0, SVG Export Plug-In . SVG Version: 6.00 Build 0)  -->
<svg version="1.1" id="Layer_1" xmlns="http://www.w3.org/2000/svg" xmlns:xlink="http://www.w3.org/1999/xlink" x="0px" y="0px"
	 viewBox="0 0 317 253" style="enable-background:new 0 0 317 253;" xml:space="preserve">
<style type="text/css">
	.st0{fill:#EFEFEF;}
	.st1{fill:#67ADA7;}
	.st2{fill:#FFFFFF;}
</style>
<g>
	<rect x="66" y="7.9" class="st0" width="188.1" height="235.1"/>
	<g>
		<rect x="57.1" y="196" class="st1" width="17.6" height="47"/>
		<rect x="10.1" y="196" class="st1" width="17.6" height="47"/>
		<path class="st1" d="M74.8,204.8H10.1v-64.7h64.7V204.8z M27.8,187.1h29.4v-29.4H27.8V187.1z"/>
		<rect x="57.1" y="101.9" class="st1" width="17.6" height="47"/>
		<rect x="10.1" y="101.9" class="st1" width="17.6" height="47"/>
		<path class="st1" d="M74.8,110.7H10.1V46.1h64.7V110.7z M27.8,93.1h29.4V63.7H27.8V93.1z"/>
		<rect x="57.1" y="7.9" class="st1" width="17.6" height="47"/>
		<rect x="10.1" y="7.9" class="st1" width="17.6" height="47"/>
	</g>
	<g>
		<rect x="292.3" y="196" class="st1" width="17.6" height="47"/>
		<rect x="245.2" y="196" class="st1" width="17.6" height="47"/>
		<path class="st1" d="M309.9,204.8h-64.7v-64.7h64.7V204.8z M262.9,187.1h29.4v-29.4h-29.4V187.1z"/>
		<rect x="292.3" y="101.9" class="st1" width="17.6" height="47"/>
		<rect x="245.2" y="101.9" class="st1" width="17.6" height="47"/>
		<path class="st1" d="M309.9,110.7h-64.7V46.1h64.7V110.7z M262.9,93.1h29.4V63.7h-29.4V93.1z"/>
		<rect x="292.3" y="7.9" class="st1" width="17.6" height="47"/>
		<rect x="245.2" y="7.9" class="st1" width="17.6" height="47"/>
	</g>
	<g>
		<path class="st2" d="M200.6,125.4c0,22.4-18.2,40.6-40.6,40.6c-22.4,0-40.6-18.2-40.6-40.6c0-22.4,18.2-40.6,40.6-40.6
			C182.4,84.9,200.6,103,200.6,125.4z"/>
		<path class="st1" d="M160,174.8c-27.2,0-49.4-22.2-49.4-49.4c0-27.2,22.2-49.4,49.4-49.4c27.2,0,49.4,22.1,49.4,49.4
			C209.4,152.6,187.2,174.8,160,174.8z M160,93.7c-17.5,0-31.7,14.2-31.7,31.8s14.2,31.7,31.7,31.7c17.5,0,31.8-14.2,31.8-31.7
			S177.5,93.7,160,93.7z"/>
		<polygon class="st1" points="151.8,111.3 176.4,125.4 151.8,139.6 		"/>
	</g>
</g>
<g>
	<g>
		
			<rect x="188.4" y="170.5" transform="matrix(0.8299 -0.5579 0.5579 0.8299 -65.8099 138.2434)" class="st1" width="10.9" height="13"/>
		<path class="st1" d="M127.4,78.3c-26.1,17.5-33,52.8-15.5,78.9c17.5,26.1,52.8,33,78.9,15.5c26.1-17.5,33-52.8,15.5-78.9
			C188.8,67.7,153.5,60.8,127.4,78.3z M184.5,163.2c-20.8,14-49.1,8.5-63.1-12.4c-14-20.9-8.5-49.1,12.4-63.1
			c20.9-14,49.1-8.5,63.1,12.4C210.9,121,205.4,149.2,184.5,163.2z"/>
		<path class="st1" d="M209.3,180.8l28.1,41.7c3.3,4.9,2,11.6-2.9,14.9c-4.9,3.3-11.6,2-14.9-2.9l-28.1-41.7L209.3,180.8z"/>
		<path class="st1" d="M209.3,180.8l-17.8,12l-0.7-1.1c-0.5-0.8-0.8-1.8-0.6-2.9c0.2-1,0.8-1.9,1.6-2.4l11.5-7.7
			c0.8-0.5,1.8-0.8,2.9-0.6c1,0.2,1.9,0.8,2.4,1.6L209.3,180.8z"/>
	</g>
</g>
</svg>
