<svg xmlns="http://www.w3.org/2000/svg" viewBox="0 0 99.48 99.45"><defs><style>.cls-1{fill:#6595f8;}.cls-1,.cls-2,.cls-3,.cls-4{fill-rule:evenodd;}.cls-2{fill:#1973d1;}.cls-3{fill:#8f8e8e;}.cls-4{fill:#fff;}</style></defs><title>Asset 1</title><g id="Layer_2" data-name="Layer 2"><g id="Layer_1-2" data-name="Layer 1"><path class="cls-1" d="M53.17,10.72a10.49,10.49,0,0,0-2.3-1.94Q47,6.31,44.25,7.1,41,8,38.31,12a36.85,36.85,0,0,0-4.12,7.44q-1.37,3.43-7.66,13.51T19.29,48.66a42.06,42.06,0,0,0-.24,11.9,29.81,29.81,0,0,0,3.67,11.59,27.55,27.55,0,0,0,10.74,11l1,.53a29.9,29.9,0,0,0,4,2.76,26.15,26.15,0,0,0,14.93,3.63q2.06-.14,9.92,0a63.75,63.75,0,0,0,9.85-.45q5.25-3.05,4-8a17.16,17.16,0,0,0-1.34-4,26.86,26.86,0,0,0,2.78-1.75q3.5-2.4,3.12-5.56A7.2,7.2,0,0,0,78,65.12q6.35-3.91,5.39-8.5T79,51.44a5.77,5.77,0,0,0,2.71-3.57q.86-2.71-1.51-7a5.45,5.45,0,0,0-.82-.79,15.64,15.64,0,0,0-3.88-2.06l-.24-.45a5.48,5.48,0,0,0-.82-.79q-4.6-3.36-11.84-3.29l-3.42,0,.74-6.74a32.77,32.77,0,0,0-.17-10,8.61,8.61,0,0,0-3.88-4.77A13.69,13.69,0,0,0,53.17,10.72Zm46.31,39A47.89,47.89,0,0,1,84.91,84.89,48,48,0,0,1,49.74,99.45,48,48,0,0,1,14.57,84.89a54,54,0,0,1-5.41-6.28A47.7,47.7,0,0,1,0,49.72,47.7,47.7,0,0,1,9.17,20.83a53.81,53.81,0,0,1,5.41-6.28A48,48,0,0,1,49.74,0,48,48,0,0,1,84.91,14.56,47.89,47.89,0,0,1,99.48,49.72Z"/><path class="cls-2" d="M59.13,33.56q-4.22,0-5.3-.09l1.1-9.95a32.75,32.75,0,0,0-.17-10,7.6,7.6,0,0,0-1.58-2.83,13.69,13.69,0,0,1,2.64,1.35,8.61,8.61,0,0,1,3.88,4.77,32.77,32.77,0,0,1,.17,10Zm16.32,4.51a15.64,15.64,0,0,1,3.88,2.06,5.45,5.45,0,0,1,.82.79q2.37,4.25,1.51,7A5.77,5.77,0,0,1,79,51.44q3.4.58,4.43,5.18T78,65.12a7.2,7.2,0,0,1,3.67,5.18q.38,3.16-3.12,5.56a26.86,26.86,0,0,1-2.78,1.75,17.16,17.16,0,0,1,1.34,4q1.27,5-4,8a63.75,63.75,0,0,1-9.85.45q-7.86-.14-9.92,0a26.15,26.15,0,0,1-14.93-3.63,29.9,29.9,0,0,1-4-2.76,25.92,25.92,0,0,0,14,3.1q2.06-.14,9.92,0a63.64,63.64,0,0,0,9.85-.45q5.25-3.05,4-8a17.13,17.13,0,0,0-1.34-4,26.86,26.86,0,0,0,2.78-1.75q3.5-2.4,3.12-5.56A7.2,7.2,0,0,0,73,61.83q6.35-3.91,5.39-8.5T74,48.15a5.77,5.77,0,0,0,2.71-3.57Q77.54,42,75.45,38.07Z"/><path class="cls-3" d="M34.43,83.72l-1-.53a27.55,27.55,0,0,1-10.74-11,29.81,29.81,0,0,1-3.67-11.59,42.06,42.06,0,0,1,.24-11.9q1-5.73,7.24-15.74t7.66-13.51A36.85,36.85,0,0,1,38.31,12Q41,8,44.25,7.1,47,6.31,50.87,8.78a10.49,10.49,0,0,1,2.3,1.94,7.6,7.6,0,0,1,1.58,2.83,32.75,32.75,0,0,1,.17,10l-1.1,9.95q1.09.07,5.3.09l3.42,0q7.24-.07,11.84,3.29a5.48,5.48,0,0,1,.82.79l.24.45q2.08,3.95,1.27,6.52A5.77,5.77,0,0,1,74,48.15q3.4.58,4.43,5.18T73,61.83A7.2,7.2,0,0,1,76.72,67q.38,3.16-3.12,5.56a26.86,26.86,0,0,1-2.78,1.75,17.13,17.13,0,0,1,1.34,4q1.27,5-4,8a63.64,63.64,0,0,1-9.85.45q-7.86-.14-9.92,0A25.92,25.92,0,0,1,34.43,83.72Zm37-46.65a4.42,4.42,0,0,0-.58-.17q-4-1.09-12-.86l-1.63.07q-9.13.38-13.59-1l3.26-1.34q2-.82,3.26-1.51a63,63,0,0,0,2.23-12.83q.38-6-2.33-8a8.46,8.46,0,0,0-1.46-.89,5.33,5.33,0,0,0-3.93-.38,7.06,7.06,0,0,0-4.36,3.7,73.43,73.43,0,0,0-3.43,6.76,46.42,46.42,0,0,1-3.19,6Q27.74,36.18,25.92,40a34.06,34.06,0,0,0-3.6,14.71,30.92,30.92,0,0,0,2.81,15.22q.21.45.43.88a20.74,20.74,0,0,0,10.21,10,31.74,31.74,0,0,0,12.7,3.36q.79.07,13.28.14,3.5-.17,3.88-.24a4.31,4.31,0,0,0,3.06-2,4.84,4.84,0,0,0,1-4.35q-1-3.09-1.37-4.46a39.38,39.38,0,0,1,3.33-2.37,9.16,9.16,0,0,0,2.71-2.95q.55-2.47-2.06-4.42a37,37,0,0,1-4.53-2.88l5.63-1.75q3.26-1.34,3.36-4.18.45-3.19-3-4.63-4.29-1.2-6-1.82,6.45-1.1,6.59-4.63a8.46,8.46,0,0,0-.48-4.12A4.34,4.34,0,0,0,71.4,37.07Z"/><path class="cls-4" d="M71.4,37.07a4.34,4.34,0,0,1,2.51,2.43,8.46,8.46,0,0,1,.48,4.12q-.14,3.53-6.59,4.63,1.75.62,6,1.82,3.4,1.44,3,4.63-.1,2.85-3.36,4.18L67.8,60.63a37,37,0,0,0,4.53,2.88q2.61,2,2.06,4.42a9.16,9.16,0,0,1-2.71,2.95,39.38,39.38,0,0,0-3.33,2.37q.34,1.37,1.37,4.46a4.84,4.84,0,0,1-1,4.35,4.31,4.31,0,0,1-3.06,2q-.38.07-3.88.24-12.49-.07-13.28-.14a31.74,31.74,0,0,1-12.7-3.36,20.74,20.74,0,0,1-10.21-10q-.22-.43-.43-.87A30.92,30.92,0,0,1,22.31,54.7,34.06,34.06,0,0,1,25.92,40q1.82-3.81,7.76-13.27a46.42,46.42,0,0,0,3.19-6,73.43,73.43,0,0,1,3.43-6.76,7.06,7.06,0,0,1,4.36-3.7,5.33,5.33,0,0,1,3.93.38,8.46,8.46,0,0,1,1.46.89q2.71,2,2.33,8A63,63,0,0,1,50.15,32.3q-1.27.69-3.26,1.51l-3.26,1.34q4.46,1.34,13.59,1L58.85,36q8-.24,12,.86A4.42,4.42,0,0,1,71.4,37.07ZM63.09,83a3,3,0,0,0,2.54-1.13,3.3,3.3,0,0,0,.65-2.06q0-2.71-6-2.95A111.14,111.14,0,0,1,47,76.37q-19.29-2.16-19.29-23a28.41,28.41,0,0,1,1.75-9.05,53,53,0,0,1,4.05-9A43.7,43.7,0,0,0,26.4,46.88a35.32,35.32,0,0,0-1.85,12.31,19.38,19.38,0,0,0,4.94,13.34Q38.86,83,63.09,83Z"/><path class="cls-3" d="M63.09,83Q38.86,83,29.49,72.53a19.38,19.38,0,0,1-4.94-13.34A35.32,35.32,0,0,1,26.4,46.88a43.7,43.7,0,0,1,7.14-11.49,53,53,0,0,0-4.05,9,28.41,28.41,0,0,0-1.75,9.05q0,20.82,19.29,23a111.14,111.14,0,0,0,13.22.45q6,.24,6,2.95a3.3,3.3,0,0,1-.65,2.06A3,3,0,0,1,63.09,83Z"/></g></g></svg>
