<svg xmlns="http://www.w3.org/2000/svg" viewBox="0 0 99.48 99.45"><defs><style>.cls-1{fill:#c66;}.cls-1,.cls-2,.cls-3,.cls-4{fill-rule:evenodd;}.cls-2{fill:#c33;}.cls-3{fill:#8f8e8e;}.cls-4{fill:#fff;}</style></defs><title>Asset 2</title><g id="Layer_2" data-name="Layer 2"><g id="Layer_1-2" data-name="Layer 1"><path class="cls-1" d="M55.82,87.38a8.61,8.61,0,0,0,3.88-4.77,32.77,32.77,0,0,0,.17-10l-.74-6.74,3.42,0q7.24.07,11.84-3.29a5.48,5.48,0,0,0,.82-.79l.24-.45a15.64,15.64,0,0,0,3.88-2.06,5.45,5.45,0,0,0,.82-.79q2.37-4.25,1.51-7A5.77,5.77,0,0,0,79,48q3.4-.58,4.43-5.18T78,34.33a7.2,7.2,0,0,0,3.67-5.18Q82,26,78.54,23.59a26.86,26.86,0,0,0-2.78-1.75,17.16,17.16,0,0,0,1.34-4q1.27-5-4-8a63.75,63.75,0,0,0-9.85-.45q-7.86.14-9.92,0A26.15,26.15,0,0,0,38.41,13a29.9,29.9,0,0,0-4,2.76l-1,.53a27.55,27.55,0,0,0-10.74,11,29.81,29.81,0,0,0-3.67,11.59,42.06,42.06,0,0,0,.24,11.9q1,5.73,7.24,15.74T34.19,80a36.85,36.85,0,0,0,4.12,7.44q2.71,4,5.94,4.87,2.78.79,6.63-1.68a10.49,10.49,0,0,0,2.3-1.94A13.69,13.69,0,0,0,55.82,87.38Zm29.09-2.49A48,48,0,0,1,49.74,99.45,48,48,0,0,1,14.57,84.89a53.81,53.81,0,0,1-5.41-6.28A47.7,47.7,0,0,1,0,49.72,47.7,47.7,0,0,1,9.17,20.83a54,54,0,0,1,5.41-6.28A48,48,0,0,1,49.74,0,48,48,0,0,1,84.91,14.56,47.89,47.89,0,0,1,99.48,49.72,47.89,47.89,0,0,1,84.91,84.89Z"/><path class="cls-2" d="M59.87,72.63a32.77,32.77,0,0,1-.17,10,8.61,8.61,0,0,1-3.88,4.77,13.69,13.69,0,0,1-2.64,1.35,7.6,7.6,0,0,0,1.58-2.83,32.75,32.75,0,0,0,.17-10L53.83,66q1.09-.07,5.3-.09ZM76.72,54.87A5.77,5.77,0,0,0,74,51.3q3.4-.58,4.43-5.18T73,37.62a7.2,7.2,0,0,0,3.67-5.18q.38-3.16-3.12-5.56a26.86,26.86,0,0,0-2.78-1.75,17.13,17.13,0,0,0,1.34-4q1.27-5-4-8a63.64,63.64,0,0,0-9.85-.45q-7.86.14-9.92,0a25.92,25.92,0,0,0-14,3.1,29.9,29.9,0,0,1,4-2.76A26.15,26.15,0,0,1,53.35,9.33q2.06.14,9.92,0a63.75,63.75,0,0,1,9.85.45q5.25,3.05,4,8a17.16,17.16,0,0,1-1.34,4,26.86,26.86,0,0,1,2.78,1.75Q82,26,81.67,29.15A7.2,7.2,0,0,1,78,34.33q6.35,3.91,5.39,8.5T79,48a5.77,5.77,0,0,1,2.71,3.57q.86,2.71-1.51,7a5.45,5.45,0,0,1-.82.79,15.64,15.64,0,0,1-3.88,2.06Q77.54,57.43,76.72,54.87Z"/><path class="cls-3" d="M48.4,12.62q2.06.14,9.92,0a63.64,63.64,0,0,1,9.85.45q5.25,3.05,4,8a17.13,17.13,0,0,1-1.34,4,26.86,26.86,0,0,1,2.78,1.75q3.5,2.4,3.12,5.56A7.2,7.2,0,0,1,73,37.62q6.35,3.91,5.39,8.5T74,51.3a5.77,5.77,0,0,1,2.71,3.57q.81,2.57-1.27,6.52l-.24.45a5.48,5.48,0,0,1-.82.79Q69.79,66,62.55,65.91l-3.42,0q-4.22,0-5.3.09l1.1,9.95a32.75,32.75,0,0,1-.17,10,7.6,7.6,0,0,1-1.58,2.83,10.49,10.49,0,0,1-2.3,1.94Q47,93.14,44.25,92.35q-3.23-.89-5.94-4.87A36.85,36.85,0,0,1,34.19,80q-1.37-3.43-7.66-13.51T19.29,50.79a42.06,42.06,0,0,1-.24-11.9A29.81,29.81,0,0,1,22.73,27.3a27.55,27.55,0,0,1,10.74-11l1-.53A25.92,25.92,0,0,1,48.4,12.62ZM73.91,59.94a8.46,8.46,0,0,0,.48-4.12q-.14-3.53-6.59-4.63,1.75-.62,6-1.82,3.4-1.44,3-4.63-.1-2.85-3.36-4.18L67.8,38.82a37,37,0,0,1,4.53-2.88q2.61-2,2.06-4.42a9.16,9.16,0,0,0-2.71-2.95,39.38,39.38,0,0,1-3.33-2.37q.34-1.37,1.37-4.46a4.84,4.84,0,0,0-1-4.35,4.31,4.31,0,0,0-3.06-2q-.38-.07-3.88-.24-12.49.07-13.28.14a31.74,31.74,0,0,0-12.7,3.36,20.74,20.74,0,0,0-10.21,10q-.22.43-.43.88a30.92,30.92,0,0,0-2.81,15.22,34.06,34.06,0,0,0,3.6,14.71q1.82,3.81,7.76,13.27a46.42,46.42,0,0,1,3.19,6,73.43,73.43,0,0,0,3.43,6.76,7.06,7.06,0,0,0,4.36,3.7,5.33,5.33,0,0,0,3.93-.38A8.46,8.46,0,0,0,50,88q2.71-2,2.33-8a63,63,0,0,0-2.23-12.83q-1.27-.69-3.26-1.51L43.63,64.3q4.46-1.34,13.59-1l1.63.07q8,.24,12-.86a4.42,4.42,0,0,0,.58-.17A4.34,4.34,0,0,0,73.91,59.94Z"/><path class="cls-4" d="M70.82,62.55q-4,1.09-12,.86l-1.63-.07q-9.13-.38-13.59,1l3.26,1.34q2,.82,3.26,1.51A63,63,0,0,1,52.38,80q.38,6-2.33,8a8.46,8.46,0,0,1-1.46.89,5.33,5.33,0,0,1-3.93.38,7.06,7.06,0,0,1-4.36-3.7,73.43,73.43,0,0,1-3.43-6.76,46.42,46.42,0,0,0-3.19-6q-5.94-9.46-7.76-13.27a34.06,34.06,0,0,1-3.6-14.71,30.92,30.92,0,0,1,2.81-15.22q.21-.45.43-.87a20.74,20.74,0,0,1,10.21-10,31.74,31.74,0,0,1,12.7-3.36q.79-.07,13.28-.14,3.5.17,3.88.24a4.31,4.31,0,0,1,3.06,2,4.84,4.84,0,0,1,1,4.35q-1,3.09-1.37,4.46a39.38,39.38,0,0,0,3.33,2.37,9.16,9.16,0,0,1,2.71,2.95q.55,2.47-2.06,4.42a37,37,0,0,0-4.53,2.88l5.63,1.75q3.26,1.34,3.36,4.18.45,3.19-3,4.63-4.29,1.2-6,1.82,6.45,1.1,6.59,4.63a8.46,8.46,0,0,1-.48,4.12,4.34,4.34,0,0,1-2.51,2.43A4.42,4.42,0,0,1,70.82,62.55ZM29.49,26.92a19.38,19.38,0,0,0-4.94,13.34A35.32,35.32,0,0,0,26.4,52.57a43.7,43.7,0,0,0,7.14,11.49,53,53,0,0,1-4.05-9,28.41,28.41,0,0,1-1.75-9.05q0-20.82,19.29-23a111.14,111.14,0,0,1,13.22-.45q6-.24,6-2.95a3.3,3.3,0,0,0-.65-2.06,3,3,0,0,0-2.54-1.13Q38.86,16.5,29.49,26.92Z"/><path class="cls-3" d="M63.09,16.5q-24.24,0-33.61,10.42a19.38,19.38,0,0,0-4.94,13.34A35.32,35.32,0,0,0,26.4,52.57a43.7,43.7,0,0,0,7.14,11.49,53,53,0,0,1-4.05-9,28.41,28.41,0,0,1-1.75-9.05q0-20.82,19.29-23a111.14,111.14,0,0,1,13.22-.45q6-.24,6-2.95a3.3,3.3,0,0,0-.65-2.06A3,3,0,0,0,63.09,16.5Z"/></g></g></svg>